<?xml version="1.0" encoding="utf-8"?><svg xmlns="http://www.w3.org/2000/svg" xmlns:xlink="http://www.w3.org/1999/xlink"><symbol viewBox="0 0 117.4942 149.959" id="bmp" xmlns="http://www.w3.org/2000/svg"><title>Asset 3</title><path d="M79.742 43.75a6.017 6.017 0 0 1-6-6V0H15A15.044 15.044 0 0 0 0 15v119.959a15.044 15.044 0 0 0 15 15h87.494a15.044 15.044 0 0 0 15-15V43.75z" fill="#4467ae"/><path d="M79.318 43.708h38.176L73.787 0v38.169a5.982 5.982 0 0 0 5.531 5.539z" fill="#fff"/><path fill="#395796" d="M117.494 74.836V43.919H79.607l37.887 30.917z"/><path d="M23.566 118.533a3.285 3.285 0 1 1-3.159 3.3 3.156 3.156 0 0 1 3.16-3.3zM31.196 99.793h5.218v6.104l-.142 2.698a7.159 7.159 0 0 1 4.65-1.952c4.259 0 6.92 3.514 6.92 8.908 0 6.07-3.62 9.548-7.417 9.548a6.394 6.394 0 0 1-4.58-2.272h-.14l-.427 1.846h-4.082zm8.022 21.047c1.81 0 3.265-1.562 3.265-5.182 0-3.159-.959-4.756-3.052-4.756a4.018 4.018 0 0 0-3.017 1.597v7.205a4.048 4.048 0 0 0 2.804 1.136zM51.534 107.069h4.26l.354 2.271h.142c1.456-1.455 3.018-2.697 5.324-2.697a4.87 4.87 0 0 1 4.863 2.946c1.561-1.597 3.194-2.946 5.537-2.946 3.797 0 5.5 2.697 5.5 7.098v10.932h-5.217v-10.257c0-2.556-.674-3.336-2.165-3.336a4.659 4.659 0 0 0-3.017 1.703v11.89H61.9v-10.257c0-2.556-.675-3.336-2.166-3.336a4.594 4.594 0 0 0-2.981 1.703v11.89h-5.218zM87.17 126.057v5.147h-5.218v-24.135h4.26l.354 1.74h.142a7.74 7.74 0 0 1 5.005-2.166c4.259 0 6.886 3.514 6.886 8.944 0 6.034-3.62 9.512-7.418 9.512a6.103 6.103 0 0 1-4.189-1.846zm2.804-5.217c1.81 0 3.265-1.562 3.265-5.182 0-3.159-.959-4.756-3.052-4.756a4.073 4.073 0 0 0-3.017 1.597v7.205a4.048 4.048 0 0 0 2.804 1.136z" fill="#fff"/></symbol><symbol viewBox="0 0 117.49509 149.958" id="css" xmlns="http://www.w3.org/2000/svg"><title>Asset 15</title><path d="M79.743 43.749a6.015 6.015 0 0 1-6-6V0H15A15.044 15.044 0 0 0 0 15v119.958a15.044 15.044 0 0 0 15 15h87.495a15.044 15.044 0 0 0 15-15V43.749z" fill="#e3793b"/><path d="M79.318 43.706h38.177L73.787 0v38.168a5.981 5.981 0 0 0 5.531 5.538z" fill="#fff"/><path fill="#bf6d3a" d="M117.495 74.835V43.919H79.608l37.887 30.916z"/><path d="M24.291 117.577a3.733 3.733 0 1 1-3.589 3.75 3.586 3.586 0 0 1 3.59-3.75zM74.212 119.545a8.62 8.62 0 0 0 5.162 2.097c1.775 0 2.541-.646 2.541-1.694 0-1.33-2.017-1.936-4.073-2.742-2.42-.928-5.283-2.581-5.283-5.889 0-3.71 3.024-6.25 7.662-6.25a11.504 11.504 0 0 1 7.058 2.54l-2.662 3.55a7.377 7.377 0 0 0-4.235-1.694c-1.532 0-2.258.564-2.258 1.572 0 1.291 1.855 1.775 3.912 2.541 2.54.928 5.404 2.34 5.404 6.009 0 3.63-2.863 6.453-8.227 6.453a12.915 12.915 0 0 1-7.663-2.783zm-18.943 0a8.62 8.62 0 0 0 5.162 2.097c1.774 0 2.54-.646 2.54-1.694 0-1.33-2.016-1.936-4.073-2.742-2.42-.928-5.283-2.581-5.283-5.889 0-3.71 3.025-6.25 7.663-6.25a11.504 11.504 0 0 1 7.057 2.54l-2.661 3.55a7.377 7.377 0 0 0-4.235-1.694c-1.532 0-2.258.564-2.258 1.572 0 1.291 1.855 1.775 3.912 2.541 2.54.928 5.403 2.34 5.403 6.009 0 3.63-2.863 6.453-8.227 6.453a12.915 12.915 0 0 1-7.662-2.783zM43.007 105.066a8.078 8.078 0 0 1 5.848 2.3l-2.702 3.67a4.277 4.277 0 0 0-2.783-1.17c-2.863 0-4.678 2.218-4.678 5.686s1.895 5.686 4.476 5.686a5.769 5.769 0 0 0 3.59-1.45l2.38 3.75a10.379 10.379 0 0 1-6.655 2.5c-5.566 0-9.88-3.832-9.88-10.486a10.053 10.053 0 0 1 10.404-10.486z" fill="#fff"/></symbol><symbol viewBox="0 0 117.4942 149.9585" id="gif" xmlns="http://www.w3.org/2000/svg"><title>Asset 4</title><path d="M79.742 43.75a6.017 6.017 0 0 1-6-6V0H15A15.044 15.044 0 0 0 0 15v119.958a15.044 15.044 0 0 0 15 15h87.494a15.044 15.044 0 0 0 15-15V43.751z" fill="#e3793b"/><path d="M79.318 43.708h38.176L73.787 0v38.169a5.982 5.982 0 0 0 5.531 5.539z" fill="#fff"/><path fill="#bf6d3a" d="M117.494 74.835V43.92H79.607l37.887 30.915z"/><path d="M24.295 117.342a3.733 3.733 0 1 1-3.59 3.75 3.586 3.586 0 0 1 3.59-3.75zM34.58 123.713v-.162a3.833 3.833 0 0 1-1.855-3.386 4.832 4.832 0 0 1 2.257-3.75v-.163a6.403 6.403 0 0 1-2.702-5.203c0-4.799 3.953-7.219 8.268-7.219a9.308 9.308 0 0 1 3.105.485h7.3v4.316h-3.186a5.328 5.328 0 0 1 .645 2.621c0 4.598-3.469 6.735-7.864 6.735a7.959 7.959 0 0 1-2.42-.405 1.7 1.7 0 0 0-.726 1.493c0 1.01.807 1.492 3.025 1.492h3.226c4.92 0 7.622 1.492 7.622 5.082 0 4.154-4.315 7.18-11.17 7.18-4.68 0-8.39-1.534-8.39-5.083 0-1.654 1.01-2.984 2.864-4.033zm6.452 5.405c2.661 0 4.598-1.09 4.598-2.461 0-1.25-1.089-1.573-3.066-1.573h-2.056a11.599 11.599 0 0 1-2.823-.242 2.624 2.624 0 0 0-1.09 1.977c0 1.492 1.775 2.299 4.437 2.299zm2.258-18.069c0-2.095-1.169-3.224-2.742-3.224-1.572 0-2.742 1.088-2.742 3.224 0 2.219 1.17 3.348 2.742 3.348 1.573 0 2.742-1.129 2.742-3.348zM54.02 98.266a3.137 3.137 0 0 1 3.428-3.064 3.102 3.102 0 1 1 0 6.17 3.167 3.167 0 0 1-3.428-3.106zm.484 6.049h5.929v20.004h-5.93zM76.927 100.645a6.401 6.401 0 0 0-2.057-.402c-1.451 0-2.299.806-2.299 2.863v1.209h3.59v4.639h-3.59v15.365h-5.927v-15.365H63.98v-4.397l2.663-.201v-1.09c0-4.234 1.975-7.703 7.38-7.703a11.97 11.97 0 0 1 3.992.726z" fill="#fff"/></symbol><symbol viewBox="0 0 117.49509 149.9585" id="html" xmlns="http://www.w3.org/2000/svg"><title>Asset 10</title><path d="M79.743 43.75a6.016 6.016 0 0 1-6-6V0H15A15.044 15.044 0 0 0 0 15v119.958a15.044 15.044 0 0 0 15 15h87.495a15.044 15.044 0 0 0 15-15V43.751z" fill="#2776ae"/><path d="M79.318 43.708h38.177L73.787 0v38.169a5.982 5.982 0 0 0 5.531 5.539z" fill="#fff"/><path fill="#225e96" d="M117.495 74.835V43.92H79.608l37.887 30.915z"/><path d="M18.988 119.159a2.93 2.93 0 0 1 2.1.879 2.854 2.854 0 0 1 .908 2.128 2.997 2.997 0 0 1-5.127 2.1 2.948 2.948 0 0 1 .01-4.228 2.918 2.918 0 0 1 2.109-.88zM31.117 97.518v11.602h.117a6.965 6.965 0 0 1 5.605-2.91 6.096 6.096 0 0 1 4.688 1.913 7.057 7.057 0 0 1 1.777 5v11.68H38.52v-10.762a4.538 4.538 0 0 0-.87-2.92 2.878 2.878 0 0 0-2.372-1.083 3.73 3.73 0 0 0-2.06.625 9.233 9.233 0 0 0-2.1 2.07v12.07h-4.805V97.518zM52.953 101.717h.39v4.844h6.25v3.633h-6.25v8.418a2.732 2.732 0 0 0 .742 1.992 2.705 2.705 0 0 0 2.032.762 8.216 8.216 0 0 0 3.867-1.211v3.847a12.077 12.077 0 0 1-4.883 1.153 6.616 6.616 0 0 1-4.814-1.68 6.052 6.052 0 0 1-1.729-4.55v-8.731h-2.852v-.781zM73.285 106.21a6.208 6.208 0 0 1 3.564.986 6.04 6.04 0 0 1 2.178 2.646 11.322 11.322 0 0 1 3.076-2.763 6.716 6.716 0 0 1 3.37-.87 6.12 6.12 0 0 1 4.667 1.885 7.033 7.033 0 0 1 1.777 5.03v11.68h-4.804v-10.88a4.922 4.922 0 0 0-.81-2.988 2.75 2.75 0 0 0-2.354-1.094q-2.208 0-4.239 2.832v12.13h-4.785v-10.958a4.557 4.557 0 0 0-.86-2.94 2.81 2.81 0 0 0-2.304-1.064 3.701 3.701 0 0 0-2.148.674 9.628 9.628 0 0 0-2.09 2.158v12.13h-4.805V106.56h4.805v2.559a9.636 9.636 0 0 1 2.656-2.198 6.545 6.545 0 0 1 3.106-.713zM101.527 97.518v27.285h-4.805V97.518z" fill="#fff"/></symbol><symbol viewBox="0 0 117.49509 149.959" id="jpg" xmlns="http://www.w3.org/2000/svg"><title>Asset 1</title><path d="M79.743 43.75a6.016 6.016 0 0 1-6-6V0H15A15.044 15.044 0 0 0 0 15v119.959a15.044 15.044 0 0 0 15 15h87.495a15.044 15.044 0 0 0 15-15V43.75z" fill="#27ae60"/><path d="M79.317 43.708h38.177L73.786 0v38.169a5.985 5.985 0 0 0 5.531 5.539z" fill="#fff"/><path fill="#229653" d="M117.494 74.836V43.919H79.607l37.887 30.917z"/><path d="M24.293 117.338a3.733 3.733 0 1 1-3.589 3.75 3.586 3.586 0 0 1 3.59-3.75zM34.457 104.312h5.928v19.882c0 4.355-1.693 8.025-7.138 8.025a9.122 9.122 0 0 1-3.508-.564l1.048-4.356a5.166 5.166 0 0 0 1.573.283c1.573 0 2.097-1.009 2.097-3.226zm-.443-6.05a3.137 3.137 0 0 1 3.427-3.065 3.102 3.102 0 1 1 0 6.17 3.167 3.167 0 0 1-3.427-3.105zM51.242 125.743l-.23 5.843-5.924-.234 1.08-27.402 4.835.19.325 1.991.161.007a8.79 8.79 0 0 1 5.779-2.235c4.836.19 7.66 4.297 7.418 10.463-.27 6.85-4.536 10.638-8.848 10.468a6.932 6.932 0 0 1-4.672-2.283zm3.417-5.799c2.055.081 3.777-1.627 3.938-5.737.142-3.587-.875-5.443-3.253-5.536a4.628 4.628 0 0 0-3.496 1.678l-.322 8.18a4.6 4.6 0 0 0 3.133 1.415zM70.353 123.71v-.161a3.838 3.838 0 0 1-1.854-3.388 4.831 4.831 0 0 1 2.258-3.75v-.162a6.404 6.404 0 0 1-2.702-5.202c0-4.8 3.952-7.22 8.267-7.22a9.294 9.294 0 0 1 3.106.485h7.299v4.315h-3.186a5.334 5.334 0 0 1 .645 2.622c0 4.597-3.468 6.734-7.864 6.734a7.98 7.98 0 0 1-2.42-.403 1.698 1.698 0 0 0-.725 1.492c0 1.009.806 1.492 3.024 1.492h3.227c4.92 0 7.622 1.493 7.622 5.082 0 4.154-4.315 7.178-11.171 7.178-4.678 0-8.389-1.532-8.389-5.081 0-1.654 1.009-2.984 2.864-4.033zm6.453 5.404c2.662 0 4.598-1.089 4.598-2.46 0-1.25-1.09-1.573-3.065-1.573h-2.057a11.653 11.653 0 0 1-2.823-.242 2.62 2.62 0 0 0-1.089 1.976c0 1.493 1.774 2.3 4.436 2.3zm2.259-18.067c0-2.097-1.17-3.227-2.743-3.227s-2.742 1.09-2.742 3.227c0 2.218 1.17 3.347 2.742 3.347s2.743-1.13 2.743-3.347z" fill="#fff"/></symbol><symbol viewBox="0 0 117.49412 149.959" id="js" xmlns="http://www.w3.org/2000/svg"><title>Asset 6</title><path d="M79.742 43.75a6.017 6.017 0 0 1-6-6V0H15A15.044 15.044 0 0 0 0 15v119.959a15.044 15.044 0 0 0 15 15h87.494a15.044 15.044 0 0 0 15-15V43.75z" fill="#cf4646"/><path d="M79.318 43.708h38.176L73.787 0v38.169a5.982 5.982 0 0 0 5.531 5.539z" fill="#fff"/><path fill="#b83e3e" d="M117.494 74.836V43.919H79.607l37.887 30.917z"/><path d="M20.764 117.709a3.733 3.733 0 1 1-3.59 3.75 3.586 3.586 0 0 1 3.59-3.75zM30.927 104.683h5.929v19.882c0 4.355-1.694 8.025-7.139 8.025a9.122 9.122 0 0 1-3.508-.565l1.049-4.355a5.166 5.166 0 0 0 1.572.282c1.573 0 2.097-1.008 2.097-3.226zm-.443-6.05a3.137 3.137 0 0 1 3.428-3.065 3.102 3.102 0 1 1 0 6.17 3.167 3.167 0 0 1-3.428-3.105zM43.958 119.594a8.619 8.619 0 0 0 5.162 2.096c1.775 0 2.541-.645 2.541-1.693 0-1.33-2.016-1.936-4.073-2.743-2.42-.927-5.283-2.58-5.283-5.888 0-3.71 3.024-6.25 7.662-6.25a11.505 11.505 0 0 1 7.058 2.54l-2.663 3.55a7.377 7.377 0 0 0-4.234-1.695c-1.532 0-2.258.565-2.258 1.573 0 1.29 1.855 1.774 3.911 2.541 2.541.927 5.405 2.339 5.405 6.009 0 3.63-2.864 6.452-8.227 6.452a12.913 12.913 0 0 1-7.663-2.782z" fill="#fff"/></symbol><symbol viewBox="0 0 117.49514 149.958" id="json" xmlns="http://www.w3.org/2000/svg"><title>Asset 14</title><path d="M79.743 43.749a6.015 6.015 0 0 1-6-6V0H15A15.044 15.044 0 0 0 0 15v119.958a15.044 15.044 0 0 0 15 15h87.495a15.044 15.044 0 0 0 15-15V43.749z" fill="#4099ad"/><path d="M79.318 43.706h38.177L73.787 0v38.168a5.981 5.981 0 0 0 5.531 5.538z" fill="#fff"/><path fill="#3c889c" d="M117.495 74.835V43.919H79.608l37.887 30.916z"/><path d="M19.613 116.806a3.733 3.733 0 1 1-3.59 3.75 3.586 3.586 0 0 1 3.59-3.75zM29.777 103.78h5.928v19.882c0 4.355-1.693 8.025-7.138 8.025a9.122 9.122 0 0 1-3.509-.564l1.049-4.356a5.166 5.166 0 0 0 1.572.283c1.573 0 2.098-1.009 2.098-3.227zm-.444-6.05a3.137 3.137 0 0 1 3.428-3.065 3.102 3.102 0 1 1 0 6.17 3.167 3.167 0 0 1-3.428-3.105zM42.807 118.691a8.619 8.619 0 0 0 5.162 2.097c1.775 0 2.541-.645 2.541-1.694 0-1.33-2.016-1.936-4.073-2.742-2.42-.928-5.283-2.581-5.283-5.889 0-3.71 3.024-6.25 7.662-6.25a11.505 11.505 0 0 1 7.058 2.54l-2.662 3.55a7.377 7.377 0 0 0-4.235-1.694c-1.532 0-2.258.564-2.258 1.572 0 1.29 1.855 1.775 3.912 2.541 2.54.928 5.404 2.34 5.404 6.01 0 3.629-2.863 6.452-8.227 6.452a12.913 12.913 0 0 1-7.663-2.783zM69.739 104.066c5.04 0 9.719 3.831 9.719 10.486s-4.678 10.486-9.72 10.486c-5.08 0-9.759-3.832-9.759-10.486s4.678-10.486 9.76-10.486zm0 16.172c2.42 0 3.67-2.217 3.67-5.686 0-3.468-1.25-5.686-3.67-5.686-2.46 0-3.67 2.218-3.67 5.686s1.21 5.686 3.67 5.686zM82.832 104.793h4.84l.403 2.54h.16c1.695-1.613 3.711-3.024 6.413-3.024 4.356 0 6.21 3.065 6.21 8.066v12.42h-5.927v-11.654c0-2.904-.767-3.79-2.46-3.79-1.493 0-2.42.685-3.71 1.935v13.51h-5.929z" fill="#fff"/></symbol><symbol viewBox="0 0 117.49412 149.9585" id="less" xmlns="http://www.w3.org/2000/svg"><title>Asset 12</title><path d="M79.742 43.75a6.017 6.017 0 0 1-6-6V0H15A15.044 15.044 0 0 0 0 15v119.958a15.044 15.044 0 0 0 15 15h87.494a15.044 15.044 0 0 0 15-15V43.751z" fill="#9971a6"/><path d="M79.318 43.708h38.176L73.787 0v38.169a5.982 5.982 0 0 0 5.531 5.539z" fill="#fff"/><path fill="#8b5c99" d="M117.494 74.835V43.92H79.607l37.887 30.915z"/><path d="M22.414 120.131a2.93 2.93 0 0 1 2.1.88 2.854 2.854 0 0 1 .908 2.128 2.997 2.997 0 0 1-5.127 2.1 2.948 2.948 0 0 1 .01-4.229 2.918 2.918 0 0 1 2.109-.879zM34.7 98.49v27.286h-4.806V98.49zM47.824 107.182a8.176 8.176 0 0 1 6.367 2.578 10.208 10.208 0 0 1 2.344 7.13v.722h-12.91a5.621 5.621 0 0 0 1.826 3.76 6.245 6.245 0 0 0 4.21 1.318 9.364 9.364 0 0 0 3.31-.596 14.449 14.449 0 0 0 3.29-1.806v3.574a13.113 13.113 0 0 1-7.773 2.265 9.818 9.818 0 0 1-7.05-2.597 9.088 9.088 0 0 1-2.735-6.914 9.412 9.412 0 0 1 2.53-6.797 8.723 8.723 0 0 1 6.591-2.637zm4.2 7.52a5.281 5.281 0 0 0-1.212-3.116 3.576 3.576 0 0 0-2.793-1.123 4.008 4.008 0 0 0-2.92 1.075 5.303 5.303 0 0 0-1.396 3.164zM66.223 107.182a11.343 11.343 0 0 1 2.832.342 14.323 14.323 0 0 1 2.812 1.084v3.848a13.53 13.53 0 0 0-2.93-1.416 8.719 8.719 0 0 0-2.793-.538 2.898 2.898 0 0 0-1.62.391 1.26 1.26 0 0 0-.587 1.113 1.123 1.123 0 0 0 .489.82 18.185 18.185 0 0 0 2.675 1.505 16.4 16.4 0 0 1 4.385 2.92 4.521 4.521 0 0 1 1.26 3.212 5.09 5.09 0 0 1-1.836 4.15 7.561 7.561 0 0 1-4.96 1.514 14.76 14.76 0 0 1-3.643-.43 12.195 12.195 0 0 1-2.803-1.034v-4.004a12.857 12.857 0 0 0 5.918 1.953 3.962 3.962 0 0 0 1.992-.44 1.313 1.313 0 0 0 .762-1.162 1.24 1.24 0 0 0-.274-.781 3.601 3.601 0 0 0-.82-.723q-.546-.37-3.418-1.777a9.749 9.749 0 0 1-3.262-2.295 4.391 4.391 0 0 1-1.054-2.94 4.62 4.62 0 0 1 1.894-3.867 7.995 7.995 0 0 1 4.98-1.445zM82.375 107.182a11.343 11.343 0 0 1 2.832.342 14.323 14.323 0 0 1 2.813 1.084v3.848a13.53 13.53 0 0 0-2.93-1.416 8.719 8.719 0 0 0-2.793-.538 2.898 2.898 0 0 0-1.621.391 1.26 1.26 0 0 0-.586 1.113 1.123 1.123 0 0 0 .488.82 18.185 18.185 0 0 0 2.676 1.505 16.4 16.4 0 0 1 4.385 2.92 4.521 4.521 0 0 1 1.26 3.212 5.09 5.09 0 0 1-1.837 4.15 7.561 7.561 0 0 1-4.96 1.514 14.76 14.76 0 0 1-3.643-.43 12.195 12.195 0 0 1-2.803-1.034v-4.004a12.857 12.857 0 0 0 5.918 1.953 3.962 3.962 0 0 0 1.992-.44 1.313 1.313 0 0 0 .762-1.162 1.24 1.24 0 0 0-.273-.781 3.601 3.601 0 0 0-.82-.723q-.547-.37-3.419-1.777a9.749 9.749 0 0 1-3.261-2.295 4.391 4.391 0 0 1-1.055-2.94 4.62 4.62 0 0 1 1.895-3.867 7.995 7.995 0 0 1 4.98-1.445z" fill="#fff"/></symbol><symbol viewBox="0 0 117.4952 149.959" id="png" xmlns="http://www.w3.org/2000/svg"><title>Asset 2</title><path d="M79.743 43.75a6.016 6.016 0 0 1-6-6V0H15A15.044 15.044 0 0 0 0 15v119.959a15.044 15.044 0 0 0 15 15h87.495a15.044 15.044 0 0 0 15-15V43.75z" fill="#2776ae"/><path d="M79.317 43.708h38.177L73.786 0v38.169a5.984 5.984 0 0 0 5.531 5.539z" fill="#fff"/><path fill="#225e96" d="M117.494 74.836V43.919H79.607l37.887 30.917z"/><path d="M24.291 117.338a3.733 3.733 0 1 1-3.589 3.75 3.586 3.586 0 0 1 3.59-3.75zM38.892 125.888v5.847h-5.929v-27.423h4.84l.403 1.976h.161a8.791 8.791 0 0 1 5.687-2.46c4.84 0 7.823 3.992 7.823 10.163 0 6.856-4.113 10.808-8.428 10.808a6.932 6.932 0 0 1-4.759-2.097zm3.186-5.929c2.056 0 3.71-1.774 3.71-5.888 0-3.589-1.09-5.404-3.469-5.404a4.628 4.628 0 0 0-3.427 1.815v8.187a4.6 4.6 0 0 0 3.186 1.29zM56.074 104.312h4.84l.403 2.54h.161c1.694-1.613 3.71-3.024 6.413-3.024 4.355 0 6.21 3.065 6.21 8.066v12.421h-5.928V112.66c0-2.904-.767-3.79-2.46-3.79-1.492 0-2.42.685-3.71 1.935v13.51h-5.929zM80.757 123.71v-.161a3.838 3.838 0 0 1-1.855-3.388 4.831 4.831 0 0 1 2.259-3.75v-.162a6.402 6.402 0 0 1-2.702-5.202c0-4.8 3.952-7.22 8.267-7.22a9.294 9.294 0 0 1 3.106.485h7.299v4.315h-3.186a5.34 5.34 0 0 1 .645 2.622c0 4.597-3.468 6.734-7.864 6.734a7.98 7.98 0 0 1-2.42-.403 1.698 1.698 0 0 0-.725 1.492c0 1.009.806 1.492 3.024 1.492h3.227c4.92 0 7.622 1.493 7.622 5.082 0 4.154-4.315 7.178-11.171 7.178-4.678 0-8.389-1.532-8.389-5.081 0-1.654 1.008-2.984 2.863-4.033zm6.453 5.404c2.662 0 4.598-1.089 4.598-2.46 0-1.25-1.09-1.573-3.065-1.573h-2.057a11.652 11.652 0 0 1-2.823-.242 2.62 2.62 0 0 0-1.089 1.976c0 1.493 1.774 2.3 4.436 2.3zm2.259-18.067c0-2.097-1.17-3.227-2.743-3.227s-2.742 1.09-2.742 3.227c0 2.218 1.17 3.347 2.742 3.347s2.743-1.13 2.743-3.347z" fill="#fff"/></symbol><symbol viewBox="0 0 117.4952 149.9585" id="raw" xmlns="http://www.w3.org/2000/svg"><title>Asset 9</title><path d="M79.743 43.75a6.016 6.016 0 0 1-6-6V0H15A15.044 15.044 0 0 0 0 15v119.958a15.044 15.044 0 0 0 15 15h87.495a15.044 15.044 0 0 0 15-15V43.751z" fill="#8f8f8f"/><path d="M79.318 43.708h38.177L73.787 0v38.169a5.982 5.982 0 0 0 5.531 5.539z" fill="#fff"/><path fill="#7a7a7a" d="M117.495 74.835V43.92H79.608l37.887 30.915z"/><path d="M24.291 117.342a3.733 3.733 0 1 1-3.589 3.75 3.586 3.586 0 0 1 3.59-3.75zM32.963 104.315h4.84l.403 3.51h.161c1.452-2.704 3.63-3.995 5.687-3.995a5.74 5.74 0 0 1 2.38.405l-.969 5.12a7.493 7.493 0 0 0-2.177-.321c-1.493 0-3.348.968-4.396 3.67v11.615h-5.929zM58.373 111.454a2.784 2.784 0 0 0-3.146-2.905 10.764 10.764 0 0 0-5.324 1.815l-2.097-3.912a16.547 16.547 0 0 1 8.55-2.621c5.122 0 7.945 2.904 7.945 9.035v11.453h-4.84l-.443-2.057h-.121a8.801 8.801 0 0 1-5.848 2.541 5.749 5.749 0 0 1-5.928-6.05c0-4.194 3.347-6.493 11.252-7.3zm-3.307 8.752a4.458 4.458 0 0 0 3.307-1.696v-3.508c-4.235.565-5.606 1.774-5.606 3.307 0 1.291.887 1.897 2.298 1.897zM67.73 104.315h5.889l1.935 9.275c.323 1.977.565 3.912.887 5.93h.162c.363-2.018.686-4.033 1.17-5.93l2.218-9.275h5.121l2.259 9.275c.484 1.977.847 3.912 1.25 5.93h.161c.364-2.018.565-3.953.928-5.93l1.896-9.275h5.484l-4.799 20.004h-6.936l-1.815-7.987c-.404-1.853-.726-3.708-1.09-5.847h-.16c-.364 2.138-.646 3.994-1.009 5.847l-1.774 7.987H72.73z" fill="#fff"/></symbol><symbol viewBox="0 0 117.4952 149.958" id="sass" xmlns="http://www.w3.org/2000/svg"><title>Asset 7</title><path d="M79.743 43.749a6.015 6.015 0 0 1-6-6V0H15A15.044 15.044 0 0 0 0 15v119.958a15.044 15.044 0 0 0 15 15h87.495a15.044 15.044 0 0 0 15-15V43.749z" fill="#9971a6"/><path d="M79.318 43.706h38.177L73.787 0v38.168a5.981 5.981 0 0 0 5.531 5.538z" fill="#fff"/><path fill="#8b5c99" d="M117.495 74.835V43.919H79.608l37.887 30.916z"/><path d="M24.291 117.577a3.733 3.733 0 1 1-3.589 3.75 3.586 3.586 0 0 1 3.59-3.75zM34.773 118.545a8.62 8.62 0 0 0 5.163 2.097c1.774 0 2.54-.646 2.54-1.694 0-1.33-2.016-1.936-4.073-2.742-2.42-.928-5.283-2.581-5.283-5.889 0-3.71 3.025-6.25 7.662-6.25a11.504 11.504 0 0 1 7.058 2.54l-2.662 3.55a7.377 7.377 0 0 0-4.235-1.694c-1.532 0-2.258.564-2.258 1.572 0 1.291 1.856 1.775 3.912 2.541 2.54.928 5.404 2.34 5.404 6.009 0 3.63-2.863 6.453-8.227 6.453a12.915 12.915 0 0 1-7.663-2.783zM93.27 118.545a8.62 8.62 0 0 0 5.161 2.097c1.775 0 2.54-.646 2.54-1.694 0-1.33-2.016-1.936-4.073-2.742-2.42-.928-5.283-2.581-5.283-5.889 0-3.71 3.025-6.25 7.663-6.25a11.504 11.504 0 0 1 7.057 2.54l-2.661 3.55a7.377 7.377 0 0 0-4.235-1.694c-1.532 0-2.258.564-2.258 1.572 0 1.291 1.855 1.775 3.912 2.541 2.54.928 5.404 2.34 5.404 6.009 0 3.63-2.864 6.453-8.227 6.453a12.915 12.915 0 0 1-7.663-2.783zM74.326 118.545a8.62 8.62 0 0 0 5.162 2.097c1.774 0 2.54-.646 2.54-1.694 0-1.33-2.016-1.936-4.073-2.742-2.42-.928-5.283-2.581-5.283-5.889 0-3.71 3.025-6.25 7.662-6.25a11.504 11.504 0 0 1 7.058 2.54l-2.662 3.55a7.377 7.377 0 0 0-4.234-1.694c-1.533 0-2.259.564-2.259 1.572 0 1.291 1.856 1.775 3.912 2.541 2.54.928 5.404 2.34 5.404 6.009 0 3.63-2.863 6.453-8.227 6.453a12.915 12.915 0 0 1-7.662-2.783zM62.396 111.689a2.784 2.784 0 0 0-3.146-2.904 10.765 10.765 0 0 0-5.323 1.814l-2.097-3.912a16.547 16.547 0 0 1 8.55-2.621c5.121 0 7.944 2.904 7.944 9.035v11.453h-4.839l-.444-2.056h-.12a8.802 8.802 0 0 1-5.848 2.54 5.749 5.749 0 0 1-5.929-6.05c0-4.194 3.348-6.492 11.252-7.299zm-3.307 8.752a4.458 4.458 0 0 0 3.307-1.695v-3.508c-4.235.564-5.606 1.773-5.606 3.306 0 1.291.888 1.897 2.3 1.897z" fill="#fff"/></symbol><symbol viewBox="0 0 117.4942 149.958" id="svg" xmlns="http://www.w3.org/2000/svg"><title>Asset 5</title><path d="M79.742 43.749a6.016 6.016 0 0 1-6-6V0H15A15.044 15.044 0 0 0 0 15v119.958a15.044 15.044 0 0 0 15 15h87.494a15.044 15.044 0 0 0 15-15V43.749z" fill="#4099ad"/><path d="M79.318 43.706h38.176L73.787 0v38.168a5.981 5.981 0 0 0 5.531 5.538z" fill="#fff"/><path fill="#3c889c" d="M117.494 74.835V43.919H79.607l37.887 30.916z"/><path d="M24.294 117.577a3.733 3.733 0 1 1-3.59 3.75 3.586 3.586 0 0 1 3.59-3.75zM33.853 118.545a8.62 8.62 0 0 0 5.162 2.097c1.774 0 2.54-.646 2.54-1.694 0-1.33-2.016-1.936-4.072-2.742-2.42-.928-5.284-2.581-5.284-5.889 0-3.71 3.025-6.25 7.662-6.25a11.502 11.502 0 0 1 7.058 2.54l-2.662 3.55a7.372 7.372 0 0 0-4.234-1.694c-1.533 0-2.258.564-2.258 1.572 0 1.291 1.854 1.775 3.91 2.541 2.542.928 5.405 2.34 5.405 6.009 0 3.63-2.863 6.453-8.226 6.453a12.914 12.914 0 0 1-7.664-2.783zM48.695 104.55h5.97l2.58 9.437a452.166 452.166 0 0 1 1.572 6.171h.162a197.675 197.675 0 0 1 1.533-6.17l2.62-9.437h5.687l-6.533 20.003H55.43zM73.54 123.95v-.163a3.835 3.835 0 0 1-1.854-3.388 4.832 4.832 0 0 1 2.257-3.75v-.16a6.405 6.405 0 0 1-2.702-5.204c0-4.799 3.952-7.219 8.268-7.219a9.285 9.285 0 0 1 3.105.485h7.3v4.315h-3.186a5.33 5.33 0 0 1 .645 2.621c0 4.598-3.469 6.735-7.864 6.735a7.986 7.986 0 0 1-2.42-.404 1.698 1.698 0 0 0-.726 1.493c0 1.008.807 1.492 3.025 1.492h3.226c4.92 0 7.622 1.492 7.622 5.082 0 4.153-4.315 7.178-11.17 7.178-4.68 0-8.39-1.533-8.39-5.082 0-1.653 1.01-2.984 2.864-4.032zm6.453 5.403c2.661 0 4.598-1.09 4.598-2.46 0-1.25-1.089-1.573-3.066-1.573H79.47a11.644 11.644 0 0 1-2.823-.242 2.623 2.623 0 0 0-1.09 1.976c0 1.492 1.775 2.299 4.437 2.299zm2.258-18.068c0-2.096-1.169-3.225-2.742-3.225-1.572 0-2.742 1.089-2.742 3.225 0 2.219 1.17 3.348 2.742 3.348 1.573 0 2.742-1.13 2.742-3.348z" fill="#fff"/></symbol><symbol viewBox="0 0 117.4952 149.9585" id="rs" xmlns="http://www.w3.org/2000/svg"><title>Asset 9</title><path d="M79.743 43.75a6.016 6.016 0 0 1-6-6V0H15A15.044 15.044 0 0 0 0 15v119.958a15.044 15.044 0 0 0 15 15h87.495a15.044 15.044 0 0 0 15-15V43.751z" fill="#dea584"/><path d="M79.318 43.708h38.177L73.787 0v38.169a5.982 5.982 0 0 0 5.531 5.539z" fill="#fff"/><path fill="#d4936e" d="M117.495 74.835V43.92H79.608l37.887 30.915z"/><path d="M24.291 117.342a3.733 3.733 0 1 1-3.589 3.75 3.586 3.586 0 0 1 3.59-3.75zM32.963 104.315h4.84l.403 3.51h.161c1.452-2.704 3.63-3.995 5.687-3.995a5.74 5.74 0 0 1 2.38.405l-.969 5.12a7.493 7.493 0 0 0-2.177-.321c-1.493 0-3.348.968-4.396 3.67v11.615h-5.929zM48.216 118.545a8.62 8.62 0 0 0 5.162 2.097c1.774 0 2.54-.646 2.54-1.694 0-1.33-2.016-1.936-4.073-2.742-2.42-.928-5.283-2.581-5.283-5.889 0-3.71 3.025-6.25 7.663-6.25a11.504 11.504 0 0 1 7.057 2.54l-2.661 3.55a7.377 7.377 0 0 0-4.235-1.694c-1.532 0-2.258.564-2.258 1.572 0 1.291 1.855 1.775 3.912 2.541 2.54.928 5.403 2.34 5.403 6.009 0 3.63-2.863 6.453-8.227 6.453a12.915 12.915 0 0 1-7.662-2.783z" fill="#fff"/></symbol><symbol xmlns="http://www.w3.org/2000/svg" id="ts" viewBox="0 0 117.4952 149.9585"><title>Asset 14</title><path fill="#2B4F7E" d="M79.743 43.75a6.016 6.016 0 0 1-6-6V0H15A15.044 15.044 0 0 0 0 15v119.958a15.044 15.044 0 0 0 15 15h87.495a15.044 15.044 0 0 0 15-15V43.751z"/><path fill="#fff" d="M79.318 43.708h38.177L73.787 0v38.169a5.982 5.982 0 0 0 5.531 5.539z"/><path fill="#0048ab" d="M117.495 74.835V43.92H79.608l37.887 30.915z"/><path fill="#fff" d="M24.3,117.3c2.1-0.1,3.8,1.5,3.9,3.6c0.1,2.1-1.5,3.8-3.6,3.9s-3.8-1.5-3.9-3.6c0,0,0-0.1,0-0.1 c-0.1-2,1.4-3.7,3.4-3.7C24.2,117.3,24.2,117.3,24.3,117.3L24.3,117.3z M48.2,118.5c1.4,1.3,3.3,2,5.2,2.1c1.8,0,2.5-0.6,2.5-1.7 c0-1.3-2-1.9-4.1-2.7c-2.4-0.9-5.3-2.6-5.3-5.9c0-3.7,3-6.2,7.7-6.2c2.6,0,5.1,0.9,7.1,2.5l-2.7,3.6c-1.2-1-2.7-1.6-4.2-1.7 c-1.5,0-2.3,0.6-2.3,1.6c0,1.3,1.9,1.8,3.9,2.5c2.5,0.9,5.4,2.3,5.4,6c0,3.6-2.9,6.5-8.2,6.5c-2.8-0.1-5.5-1.1-7.7-2.8L48.2,118.5z M36.2,101.6h0.4v4.8h6.2v3.6h-6.2v8.4c0,0.7,0.2,1.5,0.7,2c0.5,0.5,1.3,0.8,2,0.8c1.4-0.1,2.7-0.5,3.9-1.2v3.8 c-1.5,0.7-3.2,1.1-4.9,1.2c-1.8,0.1-3.5-0.5-4.8-1.7c-1.2-1.2-1.8-2.9-1.7-4.6v-8.7H29v-0.8L36.2,101.6z"/></symbol></svg>