<?xml version="1.0" standalone="no"?>
<!DOCTYPE svg PUBLIC "-//W3C//DTD SVG 20010904//EN"
 "http://www.w3.org/TR/2001/REC-SVG-20010904/DTD/svg10.dtd">
<svg version="1.0" xmlns="http://www.w3.org/2000/svg"
 width="1555.000000pt" height="1555.000000pt" viewBox="0 0 1555.000000 1555.000000"
 preserveAspectRatio="xMidYMid meet">
<metadata>
Created by potrace 1.11, written by Peter Selinger 2001-2013
</metadata>
<g transform="translate(0.000000,1555.000000) scale(0.100000,-0.100000)"
fill="#000000" stroke="none">
<path d="M7660 15529 c-591 -33 -1128 -331 -1449 -804 -303 -444 -371 -1000
-186 -1500 152 -412 482 -770 892 -970 l102 -49 -4 -71 c-3 -38 -8 -240 -11
-447 l-6 -378 -2489 0 -2489 0 0 -475 c0 -373 3 -475 13 -476 6 -1 1120 -2
2475 -3 l2463 -1 -1 -229 c0 -126 -2 -232 -4 -235 -2 -3 -7 -204 -11 -446 -3
-242 -8 -458 -10 -480 -2 -22 -7 -231 -10 -465 -4 -234 -8 -436 -10 -450 -2
-14 -6 -221 -10 -460 -4 -239 -8 -446 -10 -460 -2 -14 -6 -218 -10 -455 -3
-236 -8 -446 -10 -465 -2 -19 -6 -224 -10 -455 -3 -231 -8 -445 -10 -475 -2
-30 -7 -230 -10 -445 -3 -214 -7 -428 -10 -475 -3 -47 -7 -247 -10 -445 -10
-662 -22 -759 -122 -962 l-46 -93 -890 0 -890 0 -135 70 c-612 321 -952 658
-1053 1046 -32 123 -32 292 0 419 28 110 92 250 161 348 51 75 163 193 214
226 32 22 33 21 -59 51 -135 43 -372 142 -540 225 -736 364 -1479 969 -2257
1841 -105 118 -194 214 -198 214 -10 0 -81 -172 -119 -287 -232 -692 -170
-1470 186 -2348 117 -288 281 -611 523 -1030 51 -88 105 -186 120 -217 l27
-57 41 34 c98 84 236 121 416 111 67 -3 130 -8 141 -11 11 -4 58 -61 105 -127
235 -335 491 -640 785 -934 493 -494 1000 -863 1614 -1173 493 -249 798 -366
1781 -681 603 -194 892 -329 1069 -499 l63 -61 67 61 c209 190 470 307 1236
553 776 249 1100 373 1540 591 602 298 1052 609 1545 1066 306 284 651 684
919 1066 55 78 102 134 114 137 12 4 76 9 142 12 90 5 139 2 195 -10 83 -17
187 -65 221 -102 32 -34 43 -30 67 24 12 26 78 146 148 267 315 550 472 882
612 1300 88 260 139 476 179 745 23 158 26 653 5 795 -21 138 -57 298 -97 430
-32 105 -55 166 -119 318 l-16 37 -172 -192 c-702 -790 -1363 -1356 -2027
-1737 -247 -141 -547 -277 -778 -352 -57 -18 -103 -36 -103 -40 0 -4 15 -17
34 -28 45 -28 154 -145 204 -218 127 -187 183 -362 183 -566 -1 -475 -396
-913 -1164 -1290 -323 -159 -621 -264 -902 -318 -43 -9 -140 -14 -255 -14
-163 0 -195 3 -264 23 -128 37 -230 95 -317 182 -64 64 -84 92 -131 190 -97
197 -113 301 -123 790 -8 453 -31 1472 -40 1885 -3 121 -12 533 -20 915 -8
382 -17 796 -20 920 -3 124 -12 536 -20 915 -8 380 -17 805 -20 945 -3 140
-10 428 -15 639 -5 212 -7 388 -5 391 2 3 1115 6 2474 5 l2471 0 0 478 0 477
-2484 0 -2484 0 -6 263 c-3 144 -9 345 -12 447 l-6 185 114 57 c363 183 637
455 808 803 105 214 150 372 169 600 25 297 -33 594 -170 867 -100 198 -195
326 -369 491 -372 354 -882 535 -1420 506z m300 -1125 c169 -51 325 -177 400
-324 72 -141 86 -326 37 -475 -65 -196 -230 -353 -437 -416 -110 -34 -274 -32
-385 4 -207 68 -365 223 -428 422 -29 93 -31 272 -3 355 78 231 255 392 490
446 77 17 250 11 326 -12z"/>
</g>
</svg>
