<?xml version="1.0" standalone="no"?>
<!DOCTYPE svg PUBLIC "-//W3C//DTD SVG 20010904//EN"
 "http://www.w3.org/TR/2001/REC-SVG-20010904/DTD/svg10.dtd">
<svg version="1.0" xmlns="http://www.w3.org/2000/svg"
 width="1671.000000pt" height="1671.000000pt" viewBox="0 0 1671.000000 1671.000000"
 preserveAspectRatio="xMidYMid meet">
<metadata>
Created by potrace 1.11, written by Peter Selinger 2001-2013
</metadata>
<g transform="translate(0.000000,1671.000000) scale(0.100000,-0.100000)"
fill="#000000" stroke="none">
<path d="M8418 16025 c-2 -1 -57 -5 -123 -9 -66 -3 -147 -8 -180 -11 -33 -3
-87 -7 -120 -10 -33 -2 -76 -6 -95 -9 -19 -3 -62 -8 -95 -11 -33 -3 -69 -8
-80 -10 -11 -2 -42 -7 -70 -10 -42 -5 -218 -33 -315 -50 -14 -3 -38 -7 -55
-10 -16 -3 -73 -15 -125 -26 -52 -11 -106 -23 -120 -25 -14 -3 -43 -10 -65
-16 -22 -5 -51 -12 -65 -15 -72 -13 -347 -90 -535 -150 -205 -65 -526 -183
-660 -243 -22 -10 -71 -31 -110 -48 -38 -17 -83 -37 -99 -44 -180 -80 -545
-272 -761 -401 -351 -210 -829 -559 -1100 -802 -12 -11 -62 -56 -111 -100
-239 -213 -584 -579 -792 -840 -57 -72 -111 -139 -120 -150 -36 -43 -203 -277
-283 -395 -501 -743 -876 -1594 -1091 -2480 -22 -91 -42 -176 -44 -190 -3 -14
-16 -81 -29 -150 -32 -167 -50 -271 -60 -355 -4 -27 -8 -57 -10 -65 -2 -8 -9
-62 -16 -120 -16 -148 -17 -156 -24 -245 -4 -44 -8 -96 -10 -115 -23 -244 -22
-849 1 -1090 6 -62 8 -65 26 -54 7 5 18 9 23 11 6 1 172 61 370 133 622 227
685 250 694 250 4 0 11 -43 15 -94 4 -52 9 -105 11 -118 2 -13 9 -63 15 -113
10 -85 54 -360 65 -415 3 -14 8 -38 10 -55 11 -63 48 -235 75 -348 19 -84 24
-120 16 -125 -6 -4 -45 -18 -86 -33 -98 -33 -1239 -448 -1265 -459 -11 -5
-153 -57 -315 -115 -162 -59 -322 -117 -355 -130 -33 -13 -121 -44 -195 -71
-74 -26 -139 -50 -144 -55 -20 -17 176 -650 286 -919 16 -41 37 -93 46 -115
112 -286 333 -730 515 -1035 144 -242 336 -526 353 -522 17 3 420 149 449 161
11 5 110 42 220 81 191 69 273 99 483 176 51 19 94 34 96 34 2 0 56 -69 119
-152 63 -84 126 -166 139 -182 53 -67 196 -237 262 -311 39 -44 76 -85 81 -91
104 -119 441 -444 640 -619 192 -168 564 -448 796 -598 431 -279 859 -504
1299 -684 113 -46 408 -155 495 -182 39 -12 79 -26 90 -31 138 -56 846 -226
1063 -254 24 -3 46 -7 50 -10 4 -2 38 -7 77 -11 38 -4 72 -8 75 -10 3 -1 32
-6 65 -9 58 -6 119 -13 180 -21 17 -2 66 -7 110 -10 44 -4 96 -9 115 -11 211
-23 919 -23 1150 0 19 2 69 7 110 10 85 8 165 16 196 21 12 2 48 6 80 10 33 4
70 8 83 10 13 3 45 7 70 11 54 7 67 9 186 29 596 102 1250 299 1780 534 22 10
65 29 95 42 390 170 932 484 1320 763 135 97 412 312 476 371 6 5 40 35 75 65
167 144 382 352 593 573 36 38 193 218 310 357 53 62 170 214 239 310 42 58
80 110 85 115 57 69 317 482 427 680 71 128 275 527 275 539 0 3 17 43 39 88
21 46 55 124 75 173 20 50 41 99 46 110 20 40 217 601 218 618 0 1 6 22 13 47
7 25 13 50 15 56 1 7 13 52 27 100 14 49 35 130 47 179 11 50 28 117 36 151
15 64 55 265 73 371 6 35 13 75 16 90 3 16 7 48 11 73 3 25 9 72 14 105 5 33
12 85 15 115 3 30 8 69 10 85 2 17 7 64 10 105 3 41 8 89 10 105 20 162 28
839 12 1090 -5 72 -10 131 -12 133 -2 3 -272 -94 -1047 -376 -124 -45 -218
-74 -219 -68 -1 6 -2 22 -4 36 -1 14 -5 57 -9 95 -13 138 -17 180 -21 205 -3
14 -9 61 -15 105 -11 82 -16 110 -26 168 -3 17 -7 43 -9 57 -3 21 -14 84 -41
225 -16 87 -74 329 -110 465 -25 91 -47 172 -49 180 -46 175 -215 651 -286
807 -10 24 -19 45 -19 48 0 4 -22 53 -88 195 -14 30 -26 57 -27 60 -6 17 -27
64 -35 81 -9 16 -7 21 12 29 23 9 367 134 593 215 66 24 138 50 160 58 44 17
465 170 615 224 52 18 142 52 200 73 58 22 109 40 114 40 4 0 22 6 39 14 18 8
104 40 192 71 88 31 169 61 180 65 58 25 243 90 253 90 7 0 12 2 12 4 0 4
-128 254 -177 347 -88 164 -231 401 -360 596 l-114 171 -122 -43 c-67 -23
-140 -50 -162 -58 -22 -9 -213 -79 -425 -156 -212 -76 -392 -142 -400 -145
-10 -4 -23 7 -40 31 -29 44 -165 226 -224 298 -50 63 -179 218 -186 225 -3 3
-34 39 -70 80 -187 214 -485 508 -715 705 -32 28 -74 64 -94 81 -79 68 -293
235 -411 320 -114 83 -456 314 -465 314 -2 0 -39 22 -82 48 -428 266 -1094
571 -1551 713 -37 12 -76 25 -87 30 -50 22 -560 159 -685 183 -14 3 -70 14
-125 26 -103 21 -421 74 -510 85 -27 3 -63 8 -80 10 -28 4 -117 13 -190 20
-83 8 -206 18 -255 21 -64 5 -758 13 -762 9z m512 -2689 c91 -3 176 -8 190
-10 14 -2 59 -7 100 -10 41 -4 86 -8 100 -10 14 -3 45 -7 70 -10 25 -3 56 -8
70 -11 14 -3 48 -8 75 -11 28 -4 53 -8 56 -10 4 -2 24 -6 45 -10 222 -33 725
-181 921 -270 17 -8 34 -14 37 -14 20 0 336 -150 461 -218 140 -77 164 -90
265 -154 52 -33 104 -65 115 -71 11 -7 22 -14 25 -17 3 -3 28 -20 55 -39 56
-39 227 -163 235 -171 3 -3 28 -23 55 -44 28 -22 55 -44 60 -51 6 -6 20 -18
33 -27 30 -21 164 -141 276 -250 72 -68 94 -84 107 -77 10 5 174 66 366 135
458 167 521 190 633 230 l95 34 58 -62 c83 -90 292 -339 363 -433 137 -181
371 -553 357 -566 -7 -5 -227 -86 -638 -234 -49 -18 -216 -78 -370 -134 -154
-56 -361 -132 -460 -168 -99 -35 -189 -69 -200 -73 -11 -5 -54 -21 -95 -36
-41 -14 -115 -41 -165 -59 -49 -18 -155 -56 -235 -85 -209 -75 -214 -78 -202
-93 30 -35 236 -467 267 -557 1 -3 7 -18 14 -35 120 -300 253 -782 286 -1040
3 -22 7 -50 9 -63 3 -12 10 -68 16 -125 6 -56 13 -115 16 -132 17 -115 26
-701 12 -797 -3 -21 -4 -38 -2 -38 4 0 111 38 139 50 24 10 262 95 325 117 25
8 54 19 65 24 11 5 169 62 350 128 182 66 342 124 357 130 27 10 28 10 23 -22
-2 -18 -7 -59 -10 -92 -8 -80 -25 -223 -31 -260 -67 -415 -185 -831 -338
-1186 -62 -147 -171 -369 -223 -457 -24 -41 -43 -76 -43 -78 0 -19 -275 -436
-291 -442 -5 -2 -9 -8 -9 -13 0 -12 -216 -289 -250 -319 -3 -3 -25 -27 -49
-55 -268 -304 -628 -614 -970 -836 -58 -38 -110 -73 -116 -77 -5 -4 -63 -38
-128 -76 -276 -159 -659 -331 -949 -425 -122 -39 -151 -48 -313 -92 -140 -38
-449 -98 -585 -114 -30 -4 -71 -9 -90 -12 -219 -33 -906 -39 -1066 -9 -11 2
-53 7 -94 11 -41 4 -84 9 -95 11 -11 2 -38 6 -60 9 -22 3 -62 10 -90 15 -27 5
-97 19 -155 31 -94 19 -243 54 -340 80 -19 5 -42 11 -50 13 -58 15 -367 123
-470 164 -238 96 -507 227 -652 319 -21 12 -40 23 -43 23 -12 0 -344 227 -454
310 -150 114 -329 267 -454 389 -54 53 -104 95 -112 93 -7 -1 -192 -68 -411
-148 -220 -80 -428 -156 -464 -168 -36 -13 -136 -49 -223 -81 l-157 -58 -38
40 c-91 96 -159 174 -232 263 -25 30 -47 57 -50 60 -27 24 -270 365 -270 379
0 5 -4 11 -8 13 -9 3 -152 233 -152 243 0 3 -12 24 -26 47 -40 63 -176 339
-228 463 -26 61 -51 119 -56 130 -69 155 -179 519 -244 810 l-22 101 699 254
c385 140 732 267 771 281 39 14 260 94 492 179 l421 153 -8 41 c-11 64 -21
119 -24 146 -2 14 -6 39 -9 55 -3 17 -8 57 -11 90 -4 33 -8 67 -10 75 -3 8 -7
58 -11 110 -3 52 -7 109 -10 125 -7 50 -6 525 1 603 4 39 4 72 0 72 -6 0 -915
-328 -1101 -397 -8 -3 -11 8 -9 34 8 86 16 160 20 188 2 17 7 50 10 75 5 44 9
69 21 140 3 19 8 44 9 55 2 11 9 49 15 85 35 204 147 594 238 830 77 199 189
439 284 610 14 25 33 61 44 80 10 19 22 36 27 38 4 2 7 8 7 13 0 16 132 220
239 369 158 221 309 397 526 615 445 447 955 792 1539 1044 184 79 220 93 445
167 240 80 593 164 786 189 28 3 64 8 80 11 32 6 64 10 165 19 36 4 81 9 100
11 19 2 107 6 195 10 88 4 161 7 162 8 2 1 37 0 273 -8z"/>
</g>
</svg>
