<?xml version="1.0" encoding="UTF-8" standalone="no"?>
<!-- Created with Inkscape (http://www.inkscape.org/) -->

<svg
   width="65.193878mm"
   height="65.035439mm"
   viewBox="0 0 65.193878 65.035439"
   version="1.1"
   id="svg18962"
   inkscape:version="1.1-rc (52f87abb86, 2021-05-02)"
   sodipodi:docname="odo-logo-blue.svg"
   xmlns:inkscape="http://www.inkscape.org/namespaces/inkscape"
   xmlns:sodipodi="http://sodipodi.sourceforge.net/DTD/sodipodi-0.dtd"
   xmlns="http://www.w3.org/2000/svg"
   xmlns:svg="http://www.w3.org/2000/svg">
  <sodipodi:namedview
     id="namedview18964"
     pagecolor="#505050"
     bordercolor="#eeeeee"
     borderopacity="1"
     objecttolerance="10.0"
     gridtolerance="10.0"
     guidetolerance="10.0"
     inkscape:pageshadow="0"
     inkscape:pageopacity="0"
     inkscape:pagecheckerboard="0"
     inkscape:document-units="mm"
     showgrid="false"
     fit-margin-top="4"
     fit-margin-left="4"
     lock-margins="true"
     fit-margin-right="4"
     fit-margin-bottom="4"
     inkscape:zoom="1"
     inkscape:cx="-33"
     inkscape:cy="147.5"
     inkscape:window-width="3840"
     inkscape:window-height="1139"
     inkscape:window-x="0"
     inkscape:window-y="0"
     inkscape:window-maximized="1"
     inkscape:current-layer="g18909" />
  <defs
     id="defs18959" />
  <g
     inkscape:label="Layer 1"
     inkscape:groupmode="layer"
     id="layer1"
     transform="translate(-216.66891,-68.532579)">
    <g
       id="g18909"
       transform="translate(-67.001148,-28.353959)">
      <g
         id="g19154">
        <path
           id="path886"
           style="fill:#ffffff;fill-opacity:1;stroke-width:1.34237;stroke-linecap:round;stroke-linejoin:round;stop-color:#000000"
           d="m 306.22655,157.91924 c -0.43901,0.11763 -14.31152,-3.59951 -14.6329,-3.92088 -0.32132,-0.32133 -4.03845,-14.19387 -3.92086,-14.63286 0.11764,-0.439 10.27301,-10.59439 10.71203,-10.71203 0.43896,-0.11762 14.31146,3.59952 14.63284,3.9209 0.32138,0.32137 4.0385,14.19385 3.92086,14.63285 -0.11763,0.43901 -10.273,10.5944 -10.71197,10.71202 z" />
        <path
           id="path888"
           style="fill:#ffffff;fill-opacity:1;stroke-width:1.34237;stroke-linecap:round;stroke-linejoin:round;stop-color:#000000"
           d="m 313.71363,130.15504 c -0.43901,0.11763 -14.31152,-3.59951 -14.6329,-3.92088 -0.32131,-0.32134 -4.03845,-14.19387 -3.92086,-14.63286 0.11764,-0.439 10.27301,-10.59439 10.71203,-10.71203 0.43896,-0.11762 14.31146,3.59952 14.63284,3.92089 0.32138,0.32138 4.0385,14.19386 3.92086,14.63286 -0.11763,0.43901 -10.273,10.5944 -10.71197,10.71202 z" />
        <path
           id="path890"
           style="fill:#0461a4;fill-opacity:1;stroke-width:1.34237;stroke-linecap:round;stroke-linejoin:round;stop-color:#000000"
           d="m 334.097,150.40659 c -0.43901,0.11764 -14.31152,-3.5995 -14.6329,-3.92087 -0.32131,-0.32134 -4.03845,-14.19387 -3.92086,-14.63286 0.11764,-0.43901 10.27301,-10.5944 10.71203,-10.71203 0.43896,-0.11762 14.31146,3.59952 14.63284,3.92089 0.32138,0.32137 4.0385,14.19385 3.92086,14.63286 -0.11763,0.439 -10.273,10.59439 -10.71197,10.71201 z" />
        <path
           id="path904"
           style="fill:#90cffc;fill-opacity:1;stroke-width:1.34237;stroke-linecap:round;stroke-linejoin:round;stop-color:#000000"
           d="m 313.07264,132.67995 c -0.43902,0.11765 -10.59436,10.27301 -10.712,10.71201 -0.11297,0.42177 3.31187,13.23679 3.86591,14.52728 0.0201,7.5e-4 0.0432,0.002 0.0522,0 0.43897,-0.11762 10.59437,-10.273 10.712,-10.71201 0.11303,-0.42177 -3.31181,-13.23675 -3.8659,-14.52728 -0.0198,-7.2e-4 -0.0433,-0.002 -0.0522,0 z" />
        <path
           id="path1059"
           style="fill:#90cffc;fill-opacity:1;stroke-width:1.34237;stroke-linecap:round;stroke-linejoin:round;stop-color:#000000"
           d="m 320.55972,104.91575 c -0.43902,0.11765 -10.59436,10.27301 -10.712,10.71201 -0.11297,0.42177 3.31187,13.23679 3.86591,14.52728 0.0201,7.5e-4 0.0432,0.002 0.0522,0 0.43897,-0.11762 10.59437,-10.273 10.712,-10.71201 0.11303,-0.42177 -3.31181,-13.23675 -3.8659,-14.52728 -0.0198,-7.2e-4 -0.0433,-0.002 -0.0522,0 z" />
        <path
           id="path1061"
           style="fill:#045995;fill-opacity:1;stroke-width:1.34237;stroke-linecap:round;stroke-linejoin:round;stop-color:#000000"
           d="m 340.94309,125.1673 c -0.43902,0.11765 -10.59436,10.27301 -10.712,10.71201 -0.11297,0.42177 3.31187,13.23679 3.86591,14.52728 0.0201,7.5e-4 0.0432,0.002 0.0522,0 0.43897,-0.11762 10.59437,-10.273 10.712,-10.71201 0.11303,-0.42177 -3.31181,-13.23675 -3.8659,-14.52728 -0.0198,-7.2e-4 -0.0433,-0.002 -0.0522,0 z" />
      </g>
    </g>
  </g>
</svg>
