<?xml version="1.0" encoding="UTF-8"?>
<svg xmlns="http://www.w3.org/2000/svg" xmlns:xlink="http://www.w3.org/1999/xlink" width="24" height="24" viewBox="0 0 24 24">
<path fill-rule="evenodd" fill="rgb(100%, 100%, 100%)" fill-opacity="1" d="M 11.964844 0 C 5.347656 0 0 5.5 0 12.304688 C 0 17.742188 3.425781 22.347656 8.179688 23.976562 C 8.773438 24.097656 8.992188 23.710938 8.992188 23.386719 C 8.992188 23.101562 8.972656 22.125 8.972656 21.105469 C 5.644531 21.839844 4.953125 19.636719 4.953125 19.636719 C 4.417969 18.210938 3.625 17.84375 3.625 17.84375 C 2.535156 17.089844 3.703125 17.089844 3.703125 17.089844 C 4.914062 17.171875 5.546875 18.355469 5.546875 18.355469 C 6.617188 20.226562 8.339844 19.699219 9.03125 19.371094 C 9.132812 18.578125 9.449219 18.027344 9.785156 17.722656 C 7.132812 17.4375 4.339844 16.378906 4.339844 11.652344 C 4.339844 10.308594 4.8125 9.207031 5.566406 8.351562 C 5.445312 8.046875 5.03125 6.785156 5.683594 5.09375 C 5.683594 5.09375 6.695312 4.765625 8.972656 6.355469 C 9.949219 6.085938 10.953125 5.949219 11.964844 5.949219 C 12.972656 5.949219 14.003906 6.089844 14.957031 6.355469 C 17.234375 4.765625 18.242188 5.09375 18.242188 5.09375 C 18.898438 6.785156 18.480469 8.046875 18.363281 8.351562 C 19.136719 9.207031 19.589844 10.308594 19.589844 11.652344 C 19.589844 16.378906 16.796875 17.417969 14.125 17.722656 C 14.558594 18.109375 14.933594 18.84375 14.933594 20.003906 C 14.933594 21.65625 14.914062 22.980469 14.914062 23.386719 C 14.914062 23.710938 15.132812 24.097656 15.726562 23.976562 C 20.480469 22.347656 23.910156 17.742188 23.910156 12.304688 C 23.929688 5.5 18.558594 0 11.964844 0 Z M 11.964844 0 "/>
</svg>
